<svg id="Capa_1" data-name="Capa 1" xmlns="http://www.w3.org/2000/svg" viewBox="0 0 45.6 45.6"><defs><style>.cls-1{fill:#fff;fill-rule:evenodd;}</style></defs><path class="cls-1" d="M28.3,2.14A22.8,22.8,0,1,1,5.5,24.94,22.82,22.82,0,0,1,28.3,2.14m0,3.8a19,19,0,1,1-19,19,19,19,0,0,1,19-19m0,1.9a17.1,17.1,0,1,1-17.1,17.1A17.11,17.11,0,0,1,28.3,7.84m0,21.85c-.9,0-1.46.85-1.88,1.53-.92,1.45-1.91,3-2.77,4.3a1.41,1.41,0,0,1-1.15.82.86.86,0,0,1-.74-1.2c.69-1.46,3.71-6.73,3.71-11.15,0-1.53-.82-1.9-1.9-1.9h-3.8a.95.95,0,0,1,0-1.9h17.1a1,1,0,1,1,0,1.9h-3.8c-1.08,0-1.9.37-1.9,1.9,0,4.42,3,9.69,3.71,11.15a.86.86,0,0,1-.74,1.2A1.44,1.44,0,0,1,33,35.52c-.85-1.3-1.85-2.85-2.76-4.3-.43-.69-1-1.53-1.9-1.53Zm0-16.15a2.85,2.85,0,1,1-2.85,2.85,2.86,2.86,0,0,1,2.85-2.85" transform="translate(-5.5 -2.14)"/></svg>