<?xml version="1.0" encoding="utf-8"?>
<!-- Generator: Adobe Illustrator 24.1.1, SVG Export Plug-In . SVG Version: 6.00 Build 0)  -->
<svg version="1.1" xmlns="http://www.w3.org/2000/svg" xmlns:xlink="http://www.w3.org/1999/xlink" x="0px" y="0px"
	 viewBox="0 0 199.84 156.47" style="enable-background:new 0 0 199.84 156.47;" xml:space="preserve">
<style type="text/css">
	.st0{clip-path:url(#SVGID_2_);fill:#383D76;}
	.st1{clip-path:url(#SVGID_2_);fill:#D0B5A7;}
	.st2{clip-path:url(#SVGID_2_);fill:#6A9D8C;}
</style>
<g id="BACKGROUND">
</g>
<g id="OBJECTS">
	<g id="New_Symbol_2">
	</g>
	<g id="New_Symbol_16">
	</g>
	<g>
		<defs>
			<rect id="SVGID_1_" x="30.74" y="11.79" width="136.94" height="129.38"/>
		</defs>
		<clipPath id="SVGID_2_">
			<use xlink:href="#SVGID_1_"  style="overflow:visible;"/>
		</clipPath>
		<path class="st0" d="M99.21,141.16c37.81,0,68.47-28.96,68.47-64.69s-30.65-64.69-68.47-64.69S30.74,40.75,30.74,76.48
			S61.4,141.16,99.21,141.16"/>
		<path class="st1" d="M127.59,93.22c-3.21,1.03-6.22-0.13-6.72-2.59c-0.5-2.47,1.7-5.3,4.91-6.33c3.21-1.03,6.22,0.13,6.72,2.59
			C133,89.35,130.8,92.18,127.59,93.22 M133.14,38.07l0.01,45.22c-1.81-1.55-4.79-2.01-7.89-0.94c-4.49,1.54-7.5,5.68-6.73,9.23
			c0.77,3.56,5.03,5.2,9.51,3.66c4.03-1.39,6.85-4.87,6.84-8.15c0-1.29,0-49.02,0-49.02"/>
		<path class="st1" d="M96.82,90.14L87.16,73.4l-0.35,3.31l-0.11,1.01l-0.2,1.86l-0.17,1.6l-1.62,15.24c0.44,0,0.2-0.01,0.93,0.09
			c0.28-2.61,1.1-10.46,1.63-15.45l9.05,15.33"/>
		<path class="st1" d="M74.54,95.33c-1.64,0.48-3.57-1.58-4.31-4.58c-0.01-0.04-0.01-0.07-0.02-0.11h6.22
			C76.61,92.99,75.88,94.94,74.54,95.33 M71.87,84.44c1.64-0.48,3.57,1.55,4.3,4.58c0.01,0.05,0.02,0.09,0.03,0.14h-6.23
			C69.79,86.8,70.52,84.83,71.87,84.44 M84.79,89.15h-3.81c-0.44-3.25-3.79-5.78-7.84-5.78c-4.06,0-7.4,2.53-7.85,5.78h-3.64v1.48
			h3.64c0.45,3.25,3.79,5.78,7.85,5.78c4.06,0,7.4-2.53,7.84-5.78h3.81V89.15z"/>
		<path class="st1" d="M109.17,93.08c-3,1.04-5.79-0.23-6.24-2.85c-0.44-2.62,1.63-5.58,4.63-6.63c3-1.04,5.79,0.23,6.24,2.85
			C114.24,89.06,112.17,92.03,109.17,93.08 M116.05,80.38l-1.63-0.07v2.35c-1.67-1.67-4.45-2.2-7.34-1.11
			c-4.19,1.56-7.03,5.89-6.34,9.67c0.69,3.78,4.64,5.58,8.83,4.01c3.77-1.4,6.42-5.05,6.44-8.52
			C116.02,85.34,116.05,80.38,116.05,80.38"/>
		<path class="st1" d="M114.42,90.47v5.24h1.63c0,0-0.03-7.92-0.04-9.28"/>
		<path class="st1" d="M96.31,95.19L96.31,95.19l0.27-1.91l0.08-1.01l0.15-1.73l0.15-1.73l1.3-15.27c-0.44,0.01-0.2,0.01-0.93-0.07
			c-0.22,2.62-0.89,10.48-1.31,15.48"/>
		<path class="st1" d="M147.03,94.42c-1.64,0.47-3.57-1.58-4.3-4.58c-0.01-0.04-0.01-0.07-0.02-0.11h6.22
			C149.1,92.08,148.37,94.03,147.03,94.42 M144.36,83.53c1.64-0.48,3.57,1.55,4.3,4.58c0.01,0.05,0.02,0.09,0.03,0.14h-6.23
			C142.28,85.9,143.02,83.93,144.36,83.53 M157.28,88.25h-3.81c-0.45-3.25-3.79-5.78-7.84-5.78c-4.06,0-7.4,2.53-7.85,5.78h-3.64
			v1.48h3.64c0.45,3.25,3.79,5.78,7.85,5.78c4.06,0,7.4-2.53,7.84-5.78h3.81V88.25z"/>
		<path class="st2" d="M66.4,56.94c0,0,0.54,7.2-7.16,13.47c-7.7,6.26-9.85,8.03-3.93,20.34c-7.79-0.06-15.82,3.51-6.78,15.67
			c0.08-4.38,3.78-13.1,13.74-9.53c-2.92-2.99-7.32-11.06,1.06-16.17C71.71,75.6,76.04,68.52,66.4,56.94"/>
		<path class="st1" d="M95.8,71.72l-1.45-15.91l0.98,0.07c0,0,0.84,2.87,2.59,3.22c0,0,1.19-0.35,0.63-1.05
			c-0.84-0.7-1.05-4.27,2.17-3.71c3.22,0.56,2.45,7.13-2.94,5.67c-0.7-0.28-1.68-1.05-1.68-1.05l1.8,12.76H95.8z"/>
		<path class="st1" d="M119.26,59.61c2.65-0.35,4.9,0.75,5.83,3.67c0.01,0.03-1.77,0.01-2.43,0h-6.9
			C115.89,61.42,118.12,59.76,119.26,59.61 M126.61,64.37h3.16v-1.08h-3.16c-0.37-2.38-3.14-4.24-6.51-4.24s-6.14,1.85-6.5,4.24
			h-3.02v1.08h3.02"/>
		<path class="st1" d="M126.58,63.05c-0.96-4.01-3.71-5.55-6.4-5.55c-4.15,0-6.86,3.07-6.86,7.28c0,4.62,3.51,6.94,7.41,6.94
			c3.07,0,4.54-1.89,5-4.2l-0.33-0.31c-0.61,2.13-1.79,3.79-4.49,3.79c-3.11,0-5.19-2.47-5.19-6.53c0-3.09,0.75-5.06,4.36-5.25
			c0,0,2.43-0.32,3.6,1.32"/>
		<path class="st1" d="M83.39,68.89c-3.13,1.09-6.04-0.24-6.51-2.97c-0.46-2.73,1.7-5.83,4.83-6.92c3.13-1.09,6.04,0.24,6.51,2.97
			C88.68,64.7,86.52,67.8,83.39,68.89 M90.58,55.64l-1.7-0.08v2.46c-1.74-1.75-4.64-2.29-7.65-1.16c-4.37,1.63-7.33,6.15-6.61,10.09
			c0.72,3.94,4.84,5.82,9.21,4.19c3.93-1.47,6.7-5.27,6.72-8.89C90.54,60.81,90.58,55.64,90.58,55.64"/>
		<path class="st1" d="M88.88,66.17v5.46h1.7c0,0-0.04-8.26-0.04-9.68"/>
		<path class="st1" d="M114.65,48.12c0.37-0.66,0.53-1.31,0.45-2c-0.19-1.62-1.44-2.69-2.93-3.62c-1.75-1.09-3.46-2.22-4.78-3.69
			c-0.04-0.05-0.13-0.07-0.25-0.14c-0.02,0.16-0.03,0.26-0.04,0.36c-0.16,1.52,0.55,2.85,1.39,4.15
			C109.88,45.34,112.19,46.74,114.65,48.12 M105.44,71.81c0.02-0.28,0.11-7.58,0.1-7.78c-0.04-6.75-0.07-21.39-0.1-28.15
			c0-0.24,0.03-0.66,0.13-0.68c0.46-0.08,0.95-0.06,1.42-0.03c0.09,0.01,0.19,0.22,0.23,0.35c0.85,2.89,2.86,5.1,5.85,6.77
			c1.53,0.85,2.81,1.88,3.33,3.38c0.46,1.33,0.18,2.57-0.93,3.63c-0.22,0.22-0.23,0.59-0.02,0.82c1.42,1.57,1.54,3.44,0.27,4.87
			c-0.42,0.48-1.01,0.85-1.59,1.34c0.36-0.94,0.8-1.72,0.92-2.52c0.23-1.49-0.69-2.64-1.99-3.6c-0.78-0.57-1.67-1.04-2.44-1.62
			c-1.08-0.82-2.1-1.7-3.13-2.56c-0.08-0.07-0.11-0.19-0.16-0.29c-0.08,0.04-0.16,0.07-0.25,0.11c0,0.18,0,0.37,0,0.55
			c0.02,4.55-0.03,20.87-0.03,25.42"/>
	</g>
</g>
</svg>
