<svg id="Capa_1" data-name="Capa 1" xmlns="http://www.w3.org/2000/svg" xmlns:xlink="http://www.w3.org/1999/xlink" viewBox="0 0 58.92 34.37"><defs><style>.cls-1{fill:none;}.cls-2{clip-path:url(#clip-path);}.cls-3{fill:#fff;}.cls-4{fill:#bd0034;}.cls-5{fill:#1a237b;}</style><clipPath id="clip-path" transform="translate(-2.52 -2.75)"><rect class="cls-1" x="2.52" y="2.75" width="58.92" height="34.37"/></clipPath></defs><g class="cls-2"><rect class="cls-3" width="58.92" height="34.37"/><polygon class="cls-4" points="39.45 12.43 58.92 1.53 58.92 0 57.58 0 35.38 12.43 39.45 12.43"/><polygon class="cls-4" points="38.53 22.64 58.92 34.05 58.92 31.76 42.61 22.64 38.53 22.64"/><polygon class="cls-4" points="0 2.62 17.44 12.43 21.52 12.43 0 0.33 0 2.62"/><polygon class="cls-4" points="20.59 22.64 0 34.17 0 34.37 3.72 34.37 24.67 22.64 20.59 22.64"/><polygon class="cls-5" points="54.89 0 34.26 0 34.26 11.56 54.89 0"/><polygon class="cls-5" points="25.15 0 4.6 0 25.15 11.56 25.15 0"/><polygon class="cls-5" points="58.92 12.43 58.92 4.54 44.93 12.43 58.92 12.43"/><polygon class="cls-5" points="58.92 30.43 58.92 22.64 44.93 22.64 58.92 30.43"/><polygon class="cls-5" points="5.77 34.37 25.15 34.37 25.15 23.51 5.77 34.37"/><polygon class="cls-5" points="34.26 34.37 53.7 34.37 34.26 23.51 34.26 34.37"/><polygon class="cls-5" points="0 22.64 0 30.79 14.48 22.64 0 22.64"/><polygon class="cls-5" points="0 12.43 14.48 12.43 0 4.26 0 12.43"/><polygon class="cls-4" points="26.97 0 26.97 14.47 0 14.47 0 20.6 26.97 20.6 26.97 34.37 32.44 34.37 32.44 20.6 58.92 20.6 58.92 14.47 32.44 14.47 32.44 0 26.97 0"/></g></svg>