<?xml version="1.0" encoding="utf-8"?>
<!-- Generator: Adobe Illustrator 24.1.1, SVG Export Plug-In . SVG Version: 6.00 Build 0)  -->
<svg version="1.1" id="Capa_1" xmlns="http://www.w3.org/2000/svg" xmlns:xlink="http://www.w3.org/1999/xlink" x="0px" y="0px"
	 viewBox="0 0 114 47.5" style="enable-background:new 0 0 114 47.5;" xml:space="preserve">
<style type="text/css">
	.st0{clip-path:url(#SVGID_2_);fill:#383F77;}
	.st1{clip-path:url(#SVGID_4_);fill:#383F77;}
	.st2{clip-path:url(#SVGID_6_);fill:#5F596D;}
	.st3{clip-path:url(#SVGID_8_);fill:#383F77;}
	.st4{clip-path:url(#SVGID_10_);fill:#5F596D;}
	.st5{clip-path:url(#SVGID_12_);fill:#5F596D;}
	.st6{clip-path:url(#SVGID_14_);fill:#5F596D;}
	.st7{clip-path:url(#SVGID_16_);fill:#5F596D;}
	.st8{clip-path:url(#SVGID_18_);fill:#383F77;}
	.st9{clip-path:url(#SVGID_20_);fill:#383F77;}
	.st10{clip-path:url(#SVGID_22_);fill:#383F77;}
	.st11{clip-path:url(#SVGID_24_);fill:#5F596D;}
	.st12{clip-path:url(#SVGID_26_);fill:#383F77;}
	.st13{clip-path:url(#SVGID_28_);fill:#6B9D8C;}
</style>
<g id="OBJECTS">
	<g id="New_Symbol_2">
	</g>
	<g id="New_Symbol_16">
	</g>
	<g>
		<g>
			<defs>
				<rect id="SVGID_1_" x="10.8" y="3.1" width="94.5" height="39.3"/>
			</defs>
			<clipPath id="SVGID_2_">
				<use xlink:href="#SVGID_1_"  style="overflow:visible;"/>
			</clipPath>
			<path class="st0" d="M88.2,34.8c-1.8,0.6-3.6-0.1-3.9-1.5c-0.3-1.4,1-3,2.8-3.6c1.8-0.6,3.6,0.1,3.9,1.5
				C91.3,32.6,90,34.2,88.2,34.8 M91.4,3.1l0,26c-1-0.9-2.8-1.2-4.5-0.5c-2.6,0.9-4.3,3.3-3.9,5.3c0.4,2,2.9,3,5.5,2.1
				c2.3-0.8,3.9-2.8,3.9-4.7c0-0.7,0-28.2,0-28.2"/>
		</g>
		<g>
			<defs>
				<rect id="SVGID_3_" x="10.8" y="3.1" width="94.5" height="39.3"/>
			</defs>
			<clipPath id="SVGID_4_">
				<use xlink:href="#SVGID_3_"  style="overflow:visible;"/>
			</clipPath>
			<path class="st1" d="M70.5,33L65,23.4l-0.2,1.9l-0.1,0.6L64.6,27l-0.1,0.9l-0.9,8.8c0.3,0,0.1,0,0.5,0.1c0.2-1.5,0.6-6,0.9-8.9
				l5.2,8.8"/>
		</g>
		<g>
			<defs>
				<rect id="SVGID_5_" x="10.8" y="3.1" width="94.5" height="39.3"/>
			</defs>
			<clipPath id="SVGID_6_">
				<use xlink:href="#SVGID_5_"  style="overflow:visible;"/>
			</clipPath>
			<path class="st2" d="M22.5,36.4l-0.8-8.8l0.5,0c0,0,0.5,1.6,1.4,1.8c0,0,0.7-0.2,0.3-0.6c-0.5-0.4-0.6-2.3,1.2-2
				c1.8,0.3,1.3,3.9-1.6,3.1c-0.4-0.2-0.9-0.6-0.9-0.6l1,7H22.5z"/>
		</g>
		<g>
			<defs>
				<rect id="SVGID_7_" x="10.8" y="3.1" width="94.5" height="39.3"/>
			</defs>
			<clipPath id="SVGID_8_">
				<use xlink:href="#SVGID_7_"  style="overflow:visible;"/>
			</clipPath>
			<path class="st3" d="M57.7,36c-0.9,0.3-2.1-0.9-2.5-2.6c0,0,0,0,0-0.1h3.6C58.9,34.7,58.5,35.8,57.7,36 M56.2,29.7
				c0.9-0.3,2,0.9,2.5,2.6c0,0,0,0.1,0,0.1h-3.6C55,31.1,55.4,30,56.2,29.7 M63.6,32.5h-2.2c-0.3-1.9-2.2-3.3-4.5-3.3
				c-2.3,0-4.2,1.5-4.5,3.3h-2.1v0.9h2.1c0.3,1.9,2.2,3.3,4.5,3.3c2.3,0,4.2-1.5,4.5-3.3h2.2V32.5z"/>
		</g>
		<g>
			<defs>
				<rect id="SVGID_9_" x="10.8" y="3.1" width="94.5" height="39.3"/>
			</defs>
			<clipPath id="SVGID_10_">
				<use xlink:href="#SVGID_9_"  style="overflow:visible;"/>
			</clipPath>
			<path class="st4" d="M35.4,29.7c1.5-0.2,2.7,0.4,3.2,2c0,0-1,0-1.3,0h-3.8C33.6,30.7,34.8,29.8,35.4,29.7 M39.5,32.4h1.7v-0.6
				h-1.7c-0.2-1.3-1.7-2.3-3.6-2.3c-1.9,0-3.4,1-3.6,2.3h-1.7v0.6h1.7"/>
		</g>
		<g>
			<defs>
				<rect id="SVGID_11_" x="10.8" y="3.1" width="94.5" height="39.3"/>
			</defs>
			<clipPath id="SVGID_12_">
				<use xlink:href="#SVGID_11_"  style="overflow:visible;"/>
			</clipPath>
			<path class="st5" d="M39.4,31.6c-0.5-2.2-2-3.1-3.5-3.1c-2.3,0-3.8,1.7-3.8,4c0,2.5,1.9,3.8,4.1,3.8c1.7,0,2.5-1,2.7-2.3
				l-0.2-0.2c-0.3,1.2-1,2.1-2.5,2.1c-1.7,0-2.9-1.4-2.9-3.6c0-1.7,0.4-2.8,2.4-2.9c0,0,1.3-0.2,2,0.7"/>
		</g>
		<g>
			<defs>
				<rect id="SVGID_13_" x="10.8" y="3.1" width="94.5" height="39.3"/>
			</defs>
			<clipPath id="SVGID_14_">
				<use xlink:href="#SVGID_13_"  style="overflow:visible;"/>
			</clipPath>
			<path class="st6" d="M15.7,34.8c-1.7,0.6-3.3-0.1-3.6-1.6c-0.3-1.5,0.9-3.2,2.7-3.8c1.7-0.6,3.3,0.1,3.6,1.6
				C18.6,32.5,17.4,34.2,15.7,34.8 M19.6,27.6l-0.9,0v1.4c-1-1-2.6-1.3-4.2-0.6c-2.4,0.9-4,3.4-3.6,5.6c0.4,2.2,2.7,3.2,5.1,2.3
				c2.2-0.8,3.7-2.9,3.7-4.9C19.6,30.4,19.6,27.6,19.6,27.6"/>
		</g>
		<g>
			<defs>
				<rect id="SVGID_15_" x="10.8" y="3.1" width="94.5" height="39.3"/>
			</defs>
			<clipPath id="SVGID_16_">
				<use xlink:href="#SVGID_15_"  style="overflow:visible;"/>
			</clipPath>
			<path class="st7" d="M18.7,33.3v3h0.9c0,0,0-4.5,0-5.3"/>
		</g>
		<g>
			<defs>
				<rect id="SVGID_17_" x="10.8" y="3.1" width="94.5" height="39.3"/>
			</defs>
			<clipPath id="SVGID_18_">
				<use xlink:href="#SVGID_17_"  style="overflow:visible;"/>
			</clipPath>
			<path class="st8" d="M77.6,34.7c-1.7,0.6-3.3-0.1-3.6-1.6c-0.3-1.5,0.9-3.2,2.7-3.8c1.7-0.6,3.3,0.1,3.6,1.6
				C80.5,32.4,79.3,34.1,77.6,34.7 M81.6,27.4l-0.9,0v1.4c-1-1-2.6-1.3-4.2-0.6c-2.4,0.9-4,3.4-3.6,5.6c0.4,2.2,2.7,3.2,5.1,2.3
				c2.2-0.8,3.7-2.9,3.7-4.9C81.6,30.3,81.6,27.4,81.6,27.4"/>
		</g>
		<g>
			<defs>
				<rect id="SVGID_19_" x="10.8" y="3.1" width="94.5" height="39.3"/>
			</defs>
			<clipPath id="SVGID_20_">
				<use xlink:href="#SVGID_19_"  style="overflow:visible;"/>
			</clipPath>
			<path class="st9" d="M80.6,33.2v3h0.9c0,0,0-4.5,0-5.3"/>
		</g>
		<g>
			<defs>
				<rect id="SVGID_21_" x="10.8" y="3.1" width="94.5" height="39.3"/>
			</defs>
			<clipPath id="SVGID_22_">
				<use xlink:href="#SVGID_21_"  style="overflow:visible;"/>
			</clipPath>
			<path class="st10" d="M70.2,35.9L70.2,35.9l0.2-1.1l0-0.6l0.1-1l0.1-1l0.7-8.8c-0.3,0-0.1,0-0.5,0c-0.1,1.5-0.5,6-0.8,8.9"/>
		</g>
		<g>
			<defs>
				<rect id="SVGID_23_" x="10.8" y="3.1" width="94.5" height="39.3"/>
			</defs>
			<clipPath id="SVGID_24_">
				<use xlink:href="#SVGID_23_"  style="overflow:visible;"/>
			</clipPath>
			<path class="st11" d="M32.9,23.4c0.2-0.4,0.3-0.7,0.2-1.1c-0.1-0.9-0.8-1.5-1.6-2c-1-0.6-1.9-1.2-2.6-2c0,0-0.1,0-0.1-0.1
				c0,0.1,0,0.1,0,0.2c-0.1,0.8,0.3,1.6,0.8,2.3C30.3,21.9,31.5,22.7,32.9,23.4 M27.8,36.5c0-0.2,0.1-4.2,0.1-4.3
				c0-3.7,0-11.8-0.1-15.5c0-0.1,0-0.4,0.1-0.4c0.3,0,0.5,0,0.8,0c0,0,0.1,0.1,0.1,0.2c0.5,1.6,1.6,2.8,3.2,3.7
				c0.8,0.5,1.5,1,1.8,1.9c0.3,0.7,0.1,1.4-0.5,2c-0.1,0.1-0.1,0.3,0,0.5c0.8,0.9,0.8,1.9,0.1,2.7c-0.2,0.3-0.6,0.5-0.9,0.7
				c0.2-0.5,0.4-0.9,0.5-1.4c0.1-0.8-0.4-1.5-1.1-2c-0.4-0.3-0.9-0.6-1.3-0.9c-0.6-0.5-1.2-0.9-1.7-1.4c0,0-0.1-0.1-0.1-0.2
				c0,0-0.1,0-0.1,0.1c0,0.1,0,0.2,0,0.3c0,2.5,0,11.5,0,14"/>
		</g>
		<g>
			<defs>
				<rect id="SVGID_25_" x="10.8" y="3.1" width="94.5" height="39.3"/>
			</defs>
			<clipPath id="SVGID_26_">
				<use xlink:href="#SVGID_25_"  style="overflow:visible;"/>
			</clipPath>
			<path class="st12" d="M99.4,35.5c-0.9,0.3-2.1-0.9-2.5-2.6c0,0,0,0,0-0.1h3.6C100.6,34.1,100.1,35.3,99.4,35.5 M97.8,29.2
				c0.9-0.3,2,0.9,2.5,2.6c0,0,0,0.1,0,0.1h-3.6C96.6,30.6,97.1,29.5,97.8,29.2 M105.3,31.9h-2.2c-0.3-1.9-2.2-3.3-4.5-3.3
				c-2.3,0-4.2,1.5-4.5,3.3H92v0.9h2.1c0.3,1.9,2.2,3.3,4.5,3.3c2.3,0,4.2-1.5,4.5-3.3h2.2V31.9z"/>
		</g>
		<g>
			<defs>
				<rect id="SVGID_27_" x="10.8" y="3.1" width="94.5" height="39.3"/>
			</defs>
			<clipPath id="SVGID_28_">
				<use xlink:href="#SVGID_27_"  style="overflow:visible;"/>
			</clipPath>
			<path class="st13" d="M53.1,14c0,0,0.3,4.1-4.1,7.7c-4.4,3.6-5.7,4.6-2.3,11.7c-4.5,0-9.1,2-3.9,9c0-2.5,2.2-7.5,7.9-5.5
				c-1.7-1.7-4.2-6.4,0.6-9.3S58.6,20.6,53.1,14"/>
		</g>
	</g>
</g>
</svg>
