<?xml version="1.0" encoding="utf-8"?>
<!-- Generator: Adobe Illustrator 24.1.1, SVG Export Plug-In . SVG Version: 6.00 Build 0)  -->
<svg version="1.1" id="Capa_1" xmlns="http://www.w3.org/2000/svg" xmlns:xlink="http://www.w3.org/1999/xlink" x="0px" y="0px"
	 viewBox="0 0 90 90" style="enable-background:new 0 0 90 90;" xml:space="preserve">
<style type="text/css">
	.st0{fill:url(#SVGID_1_);}
</style>
<linearGradient id="SVGID_1_" gradientUnits="userSpaceOnUse" x1="-84.3164" y1="-0.608" x2="-83.8066" y2="-1.0647" gradientTransform="matrix(153.16 0 0 175.76 12915.6299 188.83)">
	<stop  offset="0" style="stop-color:#49A694"/>
	<stop  offset="0.1" style="stop-color:#49A694"/>
	<stop  offset="0.24" style="stop-color:#49A694"/>
	<stop  offset="0.41" style="stop-color:#008A96"/>
	<stop  offset="0.58" style="stop-color:#006295"/>
	<stop  offset="0.78" style="stop-color:#2E4583"/>
	<stop  offset="0.83" style="stop-color:#2E4583"/>
	<stop  offset="0.86" style="stop-color:#001986"/>
	<stop  offset="0.95" style="stop-color:#142C84"/>
	<stop  offset="1" style="stop-color:#2E4583"/>
</linearGradient>
<path class="st0" d="M7.97,86.48c0,0,0,0.07,0,0.1c0.01,0.02,0.01,0.04,0,0.06l0,0c0,0.1,0.05,0.2,0.09,0.31l0,0
	c0,0.09,0.09,0.18,0.14,0.28l0,0c0.05,0.09,0.11,0.18,0.19,0.26l0,0c0.06,0.08,0.14,0.15,0.23,0.22l0,0l0.27,0.18l0,0
	c0.09,0.05,0.19,0.09,0.3,0.12h0.05l0.32,0.08h0.05h0.33l0,0c0.11,0.01,0.21,0.01,0.32,0l0,0l47.93-7.48l0,0h0.13h0.09h0.11h0.09
	h0.1h0.1h0.09l0.1-0.05h0.07l0.1-0.06l0.07-0.06l0.09-0.07l0.07-0.06c0.02-0.03,0.05-0.05,0.08-0.07l0.07-0.08v-0.07l0.07-0.09
	c-0.01-0.02-0.01-0.05,0-0.07l0.05-0.1v-0.07c0-0.03,0-0.07,0-0.1v-0.08v-0.09c0.01-0.03,0.01-0.07,0-0.1c0,0,0,0,0-0.08
	c0-0.08,0-0.08,0-0.11v-0.08c0,0,0-0.08,0-0.12V23.81c3.28,2.77,7.56,4.28,11.98,4.23c8.98,0,16.28-5.86,16.28-13.07
	S81.15,1.91,72.17,1.91S55.9,7.77,55.9,14.98c0,0.14,0,0.28,0,0.41c-0.01,0.08-0.01,0.15,0,0.23v61.53l-43.65,6.8V23.08
	c-0.03-0.21-0.03-0.42,0-0.62c0-5,5.38-9.05,12.04-9.05s11.98,4.1,11.98,9.05s-5.38,9.05-11.98,9.05c-1.83,0.01-3.65-0.32-5.35-0.96
	c-1.19-0.21-2.34,0.51-2.56,1.62c-0.17,0.82,0.21,1.65,0.96,2.11l0,0c2.21,0.83,4.58,1.26,6.96,1.25c8.98,0,16.27-5.87,16.27-13.07
	S33.21,9.38,24.24,9.38S7.96,15.24,7.96,22.45c0.04,0.21,0.04,0.42,0,0.62V86.3c-0.01,0.02-0.01,0.04,0,0.06L7.97,86.48z
	 M72.17,5.92c6.57,0,12.04,4.1,12.04,9.05s-5.38,9.05-12.04,9.05s-11.98-4.1-11.98-9.05S65.57,5.92,72.17,5.92z"/>
</svg>
