<?xml version="1.0" encoding="utf-8"?>
<!-- Generator: Adobe Illustrator 24.1.1, SVG Export Plug-In . SVG Version: 6.00 Build 0)  -->
<svg version="1.1" id="Capa_1" xmlns="http://www.w3.org/2000/svg" xmlns:xlink="http://www.w3.org/1999/xlink" x="0px" y="0px"
	 viewBox="0 0 90 90" style="enable-background:new 0 0 90 90;" xml:space="preserve">
<style type="text/css">
	.st0{fill:url(#SVGID_1_);}
</style>
<linearGradient id="SVGID_1_" gradientUnits="userSpaceOnUse" x1="-96.0002" y1="8.3161" x2="-95.532" y2="7.995" gradientTransform="matrix(123.23 0 0 187.67 11844.0596 -1496.6803)">
	<stop  offset="0" style="stop-color:#49A694"/>
	<stop  offset="0.1" style="stop-color:#49A694"/>
	<stop  offset="0.24" style="stop-color:#49A694"/>
	<stop  offset="0.41" style="stop-color:#49A694"/>
	<stop  offset="0.58" style="stop-color:#006295"/>
	<stop  offset="0.83" style="stop-color:#001E94"/>
	<stop  offset="0.86" style="stop-color:#001986"/>
	<stop  offset="0.95" style="stop-color:#000B62"/>
	<stop  offset="0.97" style="stop-color:#002F94"/>
	<stop  offset="1" style="stop-color:#5C576D"/>
</linearGradient>
<path class="st0" d="M72.84,7.1V6.96c0,0,0,0,0-0.08c-0.01-0.04-0.01-0.08,0-0.12c0,0,0,0,0-0.08c0.01-0.04,0.01-0.07,0-0.11
	c0.01-0.04,0.01-0.07,0-0.11V6.39V6.27V6.2c0-0.04,0-0.07,0-0.11c0-0.03,0-0.05,0-0.08V5.92V5.84l-0.52-0.08h-0.08l-0.07-0.07
	L72.08,5.6l0,0l0,0l-0.11-0.08h-0.08l-0.11-0.07h-0.11H71.6h-0.13l0,0l0,0c-0.04-0.01-0.09-0.01-0.13,0h-0.08h-0.12h-0.75h-0.12
	h-0.2h-0.13l0,0h-0.13l0,0l-0.15,0.08l0,0L69.53,5.6l0,0l-0.09,0.08l-0.08,0.07l0,0c-0.03,0.03-0.07,0.06-0.09,0.09l0,0
	c-7.37,8.1-17.04,13.76-27.72,16.21c4.13-5.74,2.83-13.74-2.91-17.87C38.38,4,38.12,3.83,37.85,3.66C31.47-0.46,22.99,1.04,18.4,7.1
	c-4.14,5.74-2.84,13.75,2.9,17.89c0.25,0.18,0.51,0.35,0.78,0.52c2.34,1.51,5.07,2.32,7.85,2.34h0.62
	c12.56-0.33,24.69-4.71,34.57-12.48l-8.98,23.41c-14.5,9.79-21.31,13.16-24.24,14.37c-0.35-0.03-0.71,0.04-1.03,0.19
	c-4.71,2.1-10.25,0.17-12.63-4.41c-2.08-4.39-0.21-9.64,4.19-11.72c0.16-0.07,0.32-0.14,0.48-0.21c1.27-0.54,2.63-0.82,4.01-0.82
	c4.33-0.04,8.13,2.86,9.23,7.05c0.28,1.19,1.48,1.94,2.68,1.67c1.16-0.15,1.99-1.22,1.83-2.39c-0.01-0.05-0.02-0.1-0.03-0.16
	c-0.01-0.04-0.01-0.08,0-0.12c-1.98-7.35-9.46-11.78-16.85-9.99c-7.2,1.32-11.97,8.23-10.65,15.43c0.03,0.14,0.05,0.28,0.08,0.42
	c1.99,7.28,9.37,11.68,16.72,9.98L30.28,58c3.26-0.28,11.3-4.55,23.07-12.25L38.37,84.9c-0.38,1.09,0.2,2.28,1.28,2.66
	c0.02,0.01,0.04,0.01,0.05,0.02c1.16,0.41,2.44-0.19,2.88-1.34l0,0L59.9,41.28c0.24-0.32,0.39-0.7,0.41-1.1L72.74,7.89l0,0V7.75
	V7.67c0-0.04,0-0.07,0-0.11c0.01-0.04,0.01-0.07,0-0.11c0.01-0.03,0.01-0.06,0-0.09c0,0,0-0.08,0-0.11L72.84,7.1z M20.46,14.6
	c0.14-5.1,4.37-9.12,9.47-9c5.11-0.14,9.37,3.89,9.51,9c0,0,0,0,0,0.01c-0.15,5.11-4.4,9.13-9.51,8.99l0,0
	c-5.11,0.14-9.37-3.88-9.51-8.99L20.46,14.6z"/>
</svg>
