<?xml version="1.0" encoding="utf-8"?>
<!-- Generator: Adobe Illustrator 24.1.1, SVG Export Plug-In . SVG Version: 6.00 Build 0)  -->
<svg version="1.1" id="Capa_1" xmlns="http://www.w3.org/2000/svg" xmlns:xlink="http://www.w3.org/1999/xlink" x="0px" y="0px"
	 viewBox="0 0 90 90" style="enable-background:new 0 0 90 90;" xml:space="preserve">
<style type="text/css">
	.st0{fill:url(#SVGID_1_);}
</style>
<linearGradient id="SVGID_1_" gradientUnits="userSpaceOnUse" x1="-91.3081" y1="6.466" x2="-90.9072" y2="6.0553" gradientTransform="matrix(157.49 0 0 151.41 14387.4893 -902.0705)">
	<stop  offset="0" style="stop-color:#49A694"/>
	<stop  offset="0.1" style="stop-color:#49A694"/>
	<stop  offset="0.24" style="stop-color:#00A796"/>
	<stop  offset="0.41" style="stop-color:#008A96"/>
	<stop  offset="0.58" style="stop-color:#006295"/>
	<stop  offset="0.78" style="stop-color:#002F94"/>
	<stop  offset="0.81" style="stop-color:#003A95"/>
	<stop  offset="0.83" style="stop-color:#001E94"/>
	<stop  offset="0.86" style="stop-color:#003A94"/>
	<stop  offset="1" style="stop-color:#006495"/>
</linearGradient>
<path class="st0" d="M78.54,42.8c4.86,0,8.8-3.94,8.8-8.8s-3.94-8.8-8.8-8.8c-4.86,0-8.8,3.94-8.8,8.8l0,0
	C69.74,38.86,73.68,42.8,78.54,42.8z M78.54,30.04c2.19,0,3.97,1.78,3.97,3.97c0,2.19-1.78,3.97-3.97,3.97
	c-2.19,0-3.97-1.78-3.97-3.97l0,0C74.57,31.82,76.35,30.04,78.54,30.04z M78.54,48.8c-4.86,0-8.8,3.94-8.8,8.8s3.94,8.8,8.8,8.8
	c4.86,0,8.8-3.94,8.8-8.8S83.4,48.8,78.54,48.8z M78.54,61.56c-2.19,0-3.97-1.78-3.97-3.97c0-2.19,1.78-3.97,3.97-3.97
	c2.19,0,3.97,1.78,3.97,3.97l0,0c0.01,2.19-1.76,3.96-3.95,3.97C78.55,61.56,78.55,61.56,78.54,61.56z M46.21,8.94
	c-11.94-5.71-21.36-4.45-27.18-2.4c-3.63,1.26-6.96,3.26-9.78,5.87c-6.73,4.4-8.62,13.43-4.22,20.17s13.43,8.62,20.17,4.22
	s8.62-13.43,4.22-20.17c-1.67-2.56-4.11-4.53-6.97-5.62c5.25-1.45,12.53-1.62,21.51,2.68c10,4.77,15.56,22.97,11.96,38.94
	c-1.96,8.49-9.4,28.25-37.73,28.36c-1.46,0.09-2.56,1.34-2.47,2.8c0.08,1.33,1.14,2.39,2.47,2.47l0,0
	c12.12-0.05,22.09-3.37,29.74-9.91c6.71-5.89,11.32-13.81,13.13-22.56c1.98-8.88,1.6-18.12-1.11-26.8
	C57.17,18.25,52.29,11.81,46.21,8.94z M26.51,24.59c0.01,5.15-4.16,9.32-9.31,9.33c-5.15,0.01-9.32-4.16-9.33-9.31
	c-0.01-5.15,4.16-9.32,9.31-9.33c0,0,0.01,0,0.01,0l0,0c5.15,0.01,9.32,4.19,9.32,9.34c0,0,0,0,0,0V24.59z"/>
</svg>
