<svg xmlns="http://www.w3.org/2000/svg" width="35.981" height="99.953" viewBox="0 0 35.981 99.953"><defs><style>.a{fill:#4a9f8d;}</style></defs><path class="a" d="M1588.11,298.119c0-2.631.01-4.9-.005-7.174-.006-.907-.093-1.814-.1-2.72-.09-15.777-.164-52.781-.281-68.556-.007-.932.3-1.345,1.477-1.239a7.7,7.7,0,0,0,1.408,0c1.247-.121,1.617.322,1.606,1.31-.03,3.01.069,6.022.077,9.033.036,13.34.05,47.907.086,61.246.014,4.971-.1,9.949.14,14.913.345,7.057-5.365,11.317-11.873,12.7-7.12,1.508-13.874.829-19.474-3.339-6.672-4.967-6-12.549,1.266-17,6.756-4.138,16.884-4.249,23.8-.258C1586.744,297.32,1587.243,297.614,1588.11,298.119Zm-13.531,16.461a17.317,17.317,0,0,0,9.762-2.793c4.5-3.113,4.491-7.951-.029-11.038-5.454-3.722-14.283-3.673-19.676.109-4.251,2.982-4.292,7.736-.088,10.773A17.187,17.187,0,0,0,1574.579,314.58Z" transform="translate(-1556.554 -218.409)"/></svg>