<svg xmlns="http://www.w3.org/2000/svg" width="46.444" height="55.284" viewBox="0 0 46.444 55.284"><defs><style>.a{fill:#4a9f8d;}</style></defs><path class="a" d="M1254.914,485.16c0,4.777.075,9.209-.037,13.634-.044,1.738.462,2.216,1.995,2.147,2.815-.126,5.638.011,8.456-.064,1.208-.033,1.727.379,1.627,1.746-.079,1.078-.015,2.167-.015,3.558-2.13,0-4.1-.038-6.075.012-1.915.049-4.559-.589-5.536.509-.994,1.118-.371,3.986-.406,6.09s-.008,4.21-.008,6.566c3.537,0,6.866-.034,10.194.03.6.011,1.7.376,1.719.644a23.125,23.125,0,0,1-.225,4.338c-.018.143-.847.229-1.3.232-2.937.021-5.874.063-8.81-.01-1.245-.031-1.638.468-1.6,1.8.074,2.635-.02,5.274.04,7.908.029,1.222-.3,1.714-1.489,1.686-3.845-.092-3.223.307-3.267-3.425-.024-2.058-.059-4.118.015-6.173.047-1.336-.388-1.823-1.621-1.8-3.229.068-6.461.075-9.689,0-1.278-.028-1.6.546-1.581,1.833.053,3.987-.044,7.975.05,11.958.039,1.612-.426,2.123-1.893,2.058-3.306-.144-2.849.379-2.871-3.247-.022-3.6-.045-7.2.016-10.8.022-1.334-.386-1.828-1.621-1.8-2.935.069-5.874-.027-8.808.045-1.2.029-1.745-.35-1.638-1.736.081-1.076.016-2.166.016-3.542h2.025c2.819,0,5.639-.041,8.458.019,1.1.022,1.592-.3,1.567-1.617-.066-3.34-.053-6.686,0-10.029.017-1.184-.4-1.581-1.448-1.564-2.995.046-5.992-.034-8.985.039-1.193.029-1.671-.329-1.637-1.722.106-4.285-.373-3.512,3.281-3.573,2.289-.039,4.583-.083,6.87.021,1.418.064,2-.374,1.933-2.035-.112-2.632.008-5.272-.044-7.907-.022-1.175.381-1.583,1.442-1.566,3.964.066,3.245-.361,3.306,3.554.032,2.122.045,4.245-.006,6.365-.027,1.162.37,1.6,1.439,1.581q5.019-.075,10.042-.006c1.111.017,1.4-.511,1.393-1.623-.034-3.858-.011-7.715-.01-11.573,0-2.567,0-2.567,2.424-2.562C1253.287,485.161,1253.977,485.16,1254.914,485.16Zm-4.752,34.19c0-4.252.036-8.152-.056-12.048-.009-.383-.79-1.058-1.224-1.069q-5.178-.132-10.361.005a1.66,1.66,0,0,0-1.148,1.147c-.09,3.586-.08,7.177,0,10.764.01.409.624,1.141.967,1.148C1242.191,519.38,1246.044,519.35,1250.162,519.35Z" transform="translate(-1220.523 -485.16)"/></svg>