<svg xmlns="http://www.w3.org/2000/svg" width="94.493" height="106.938" viewBox="0 0 94.493 106.938"><defs><style>.a{fill:#4a9f8d;}</style></defs><path class="a" d="M1304.577,211.423c.038.685.086,1.153.088,1.622.065,16.063.122,53.354.189,69.417.023,5.449-.138,10.907.155,16.347.4,7.351-5.739,11.639-12.38,12.969-6.538,1.309-12.665.583-18.045-2.78-8.307-5.193-7.052-14.793,2.531-18.817a24.089,24.089,0,0,1,22.141,1.2c.319.181.664.332,1.073.534V219.548c-3.123.32-5.948.6-8.77.9q-17.035,1.806-34.071,3.621c-3.2.341-6.4.7-9.613,1-1.178.109-1.752.41-1.744,1.5.123,17.114.2,55.456.29,72.57.012,2.343.062,4.686,0,7.028-.119,4.281-2.569,7.582-7.047,9.658a24.213,24.213,0,0,1-22.212-.314c-9.112-4.756-8.728-14.5.547-19.064a24.681,24.681,0,0,1,23.057.849c.3.183.66.312,1.221.573,0-1.08.005-1.963,0-2.847q-.053-8.461-.107-16.922c-.066-12.668-.11-46.565-.216-59.234-.008-.881.3-1.163,1.326-1.265q21.6-2.155,43.2-4.356,8.132-.822,16.263-1.642C1303.08,211.535,1303.717,211.493,1304.577,211.423Z" transform="translate(-1210.534 -211.423)"/></svg>