<svg xmlns="http://www.w3.org/2000/svg" width="61.084" height="100.013" viewBox="0 0 61.084 100.013"><defs><style>.a{fill:#4a9f8d;}</style></defs><path class="a" d="M1405.078,298.108c0-1.818.008-3.242,0-4.667-.062-10.753-.117-42.734-.192-53.488-.045-6.642-.134-13.284-.162-19.927,0-.6-.5-1.686,1-1.544,1.229.114,2.928-.839,3.519,1.116,2.276,7.52,7.562,13.385,15.333,17.776,4.287,2.422,7.987,5.2,9.532,9.432,1.648,4.519-.467,9.306-5.226,11.831-.273.145-.576.251-.9.389a35.155,35.155,0,0,0,2.409-4.762c1.408-4.281-.565-7.838-4.276-10.756-2.439-1.92-5.342-3.446-7.826-5.33-2.739-2.079-5.237-4.368-7.844-6.562-.228-.192-.492-.354-1.111-.794,0,2.4-.02,4.471,0,6.547.063,5.4.173,10.8.214,16.2.076,9.892.122,41.014.167,50.908.031,6.851-4.512,11.723-12.707,13.287-7.016,1.34-13.638.561-19.068-3.611-6.28-4.824-5.694-12.277,1.114-16.637,6.856-4.391,17.275-4.544,24.367-.357C1403.84,297.4,1404.255,297.634,1405.078,298.108Z" transform="translate(-1373.578 -218.348)"/></svg>