<svg xmlns="http://www.w3.org/2000/svg" width="46.055" height="92.208" viewBox="0 0 46.055 92.208"><defs><style>.a{fill:#4a9f8d;}</style></defs><path class="a" d="M1376.645,621.132l-4.564.328s-3.911,13.364-12.061,14.993c0,0-5.543-1.629-2.934-4.887,3.914-3.262,4.891-19.887-10.107-17.281s-11.41,33.254,13.691,26.411a42.316,42.316,0,0,0,7.825-4.893l-5.057,21.055c-1.7,4.058-5.3,10.749-10.917,11.87,0,0-5.542-1.63-2.934-4.89,3.914-3.259,4.89-19.884-10.1-17.279s-11.412,33.253,13.695,26.409a39.977,39.977,0,0,0,7.507-4.649l-6.207,25.837h.255l-2.9,12.061h4.82l12.494-52.811-.141.01Z" transform="translate(-1330.59 -614.009)"/></svg>