<svg xmlns="http://www.w3.org/2000/svg" width="36.057" height="99.884" viewBox="0 0 36.057 99.884"><defs><style>.a{fill:#4a9f8d;}</style></defs><path class="a" d="M1350.531,298.146c0-2.545.016-4.765-.005-6.984-.056-6.21-.153-12.42-.193-18.631-.068-10.559-.093-42.348-.18-52.907-.007-.9.354-1.2,1.413-1.139.929.051,1.865.01,3.145.01,0,2.347-.007,4.573,0,6.8q.03,6.952.076,13.906c.1,14.428.208,50.085.292,64.514.05,8.969-5.952,14.175-17.023,14.62-6.438.259-12.128-1.291-16.241-5.534-4.512-4.654-3.43-11.072,2.337-14.99,6.8-4.621,17.522-4.872,24.771-.581C1349.329,297.467,1349.741,297.7,1350.531,298.146Z" transform="translate(-1319.025 -218.478)"/></svg>