<svg xmlns="http://www.w3.org/2000/svg" width="83.443" height="41.541" viewBox="0 0 83.443 41.541"><defs><style>.a{fill:#4a9f8d;}</style></defs><path class="a" d="M1101.168,665.739h-13.749c-1.606-10.36-13.652-18.412-28.279-18.412s-26.673,8.052-28.279,18.412h-13.136v4.717h13.136c1.606,10.36,13.651,18.412,28.279,18.412s26.673-8.052,28.279-18.412h13.749Zm-46.575-15.012c5.915-1.518,12.854,4.938,15.515,14.568.042.149.069.3.108.444h-22.451C1047.1,658.242,1049.742,651.972,1054.593,650.727Zm9.612,34.661c-5.916,1.515-12.863-5.015-15.518-14.585-.032-.116-.054-.23-.085-.347h22.439C1071.688,677.941,1069.042,684.147,1064.2,685.388Z" transform="translate(-1017.725 -647.327)"/></svg>