<svg xmlns="http://www.w3.org/2000/svg" xmlns:xlink="http://www.w3.org/1999/xlink" width="1650.844" height="873.378" viewBox="0 0 1650.844 873.378"><defs><style>.a,.b{fill:#fff;}.a{stroke:#ababab;stroke-width:2px;}.c,.e{stroke:none;}.d{fill:none;}.e{fill:#ababab;}.f{filter:url(#a);}</style><filter id="a" x="1.462" y="0" width="1649.382" height="873.378" filterUnits="userSpaceOnUse"><feOffset dx="3" dy="3" input="SourceAlpha"/><feGaussianBlur stdDeviation="5" result="b"/><feFlood flood-opacity="0.2"/><feComposite operator="in" in2="b"/><feComposite in="SourceGraphic"/></filter></defs><g transform="translate(1.522 1.34)"><g class="a" transform="translate(16.611 15.519)"><rect class="c" width="1614.605" height="838.52" rx="4"/><rect class="d" x="1" y="1" width="1612.605" height="836.52" rx="3"/></g><g class="b" transform="translate(26.695 0) rotate(2)"><path class="c" d="M 1610.65283203125 807.7646484375 L 1610.63818359375 807.7646484375 L 8.18440055847168 796.9696044921875 C 6.695600986480713 796.9596557617188 5.47580099105835 795.421630859375 5.465200901031494 793.541259765625 L 1.007800936698914 4.374433517456055 C 1.00200092792511 3.34023380279541 1.366801023483276 2.37683367729187 2.008400917053223 1.73163378238678 C 2.337200880050659 1.40083372592926 2.888800859451294 1.006833791732788 3.649400949478149 1.006833791732788 L 3.663800954818726 1.006833791732788 L 1606.117553710938 11.80183410644531 C 1607.6064453125 11.81183338165283 1608.826171875 13.3500337600708 1608.836791992188 15.23043346405029 L 1613.29443359375 804.397216796875 C 1613.300170898438 805.4312133789062 1612.935424804688 806.3944091796875 1612.293823242188 807.0398559570312 C 1611.964965820312 807.3704223632812 1611.413452148438 807.7646484375 1610.65283203125 807.7646484375 Z"/><path class="e" d="M 3.649658203125 2.0068359375 C 3.232421875 2.0068359375 2.912353515625 2.2408447265625 2.7171630859375 2.43701171875 C 2.2685546875 2.8880615234375 2.00341796875 3.6102294921875 2.0078125 4.36883544921875 L 6.4652099609375 793.5354614257812 C 6.46923828125 794.234619140625 6.6986083984375 794.90625 7.0948486328125 795.3780517578125 C 7.27880859375 795.597412109375 7.666259765625 795.966064453125 8.1910400390625 795.9696044921875 L 1610.65283203125 806.7646484375 C 1611.069580078125 806.7646484375 1611.3896484375 806.5308227539062 1611.584838867188 806.3346557617188 C 1612.033447265625 805.8834228515625 1612.298583984375 805.1614379882812 1612.294189453125 804.40283203125 L 1607.836791992188 15.2362060546875 C 1607.832763671875 14.53704833984375 1607.603393554688 13.86541748046875 1607.207153320312 13.3934326171875 C 1607.02294921875 13.17401123046875 1606.635620117188 12.805419921875 1606.110961914062 12.80181884765625 L 3.649658203125 2.0068359375 M 3.6495361328125 0.00677490234375 C 3.6566162109375 0.00677490234375 3.66357421875 0.00677490234375 3.670654296875 0.0068359375 L 1606.124389648438 10.80181884765625 C 1608.160766601562 10.81561279296875 1609.822998046875 12.79583740234375 1609.836791992188 15.224853515625 L 1614.294189453125 804.3916625976562 C 1614.307983398438 806.8206176757812 1612.667846679688 808.7784423828125 1610.63134765625 808.7646484375 L 8.1776123046875 797.9696044921875 C 6.1409912109375 797.955810546875 4.47900390625 795.975830078125 4.4652099609375 793.5468139648438 L 0.0078125 4.3800048828125 C -0.0059814453125 1.95947265625 1.62255859375 0.00677490234375 3.6495361328125 0.00677490234375 Z"/></g><g class="f" transform="matrix(1, 0, 0, 1, -1.52, -1.34)"><g class="a" transform="translate(13.46 12)"><rect class="c" width="1619.382" height="843.378" rx="4"/><rect class="d" x="1" y="1" width="1617.382" height="841.378" rx="3"/></g></g></g></svg>